<svg width="512" height="160" viewBox="0 0 512 160" fill="none" xmlns="http://www.w3.org/2000/svg">
  <rect x="0" y="0" width="512" height="160" rx="28" fill="#050810"/>

  <g transform="translate(20, 16) scale(5.333)">
    <rect x="4" y="3" width="4" height="5" fill="#D97757"/>
    <rect x="16" y="3" width="4" height="5" fill="#D97757"/>
    <rect x="5" y="4" width="2" height="2" fill="#E8A87C"/>
    <rect x="17" y="4" width="2" height="2" fill="#E8A87C"/>
    <rect x="3" y="7" width="18" height="14" rx="1" fill="#D97757"/>
    <rect x="5" y="10" width="14" height="9" fill="#FAE8DE"/>
    <rect x="7" y="12" width="2" height="2" fill="#2D1B14"/>
    <rect x="15" y="12" width="2" height="2" fill="#2D1B14"/>
    <rect x="7" y="12" width="1" height="1" fill="#67E8F9"/>
    <rect x="15" y="12" width="1" height="1" fill="#67E8F9"/>
    <rect x="11" y="15" width="2" height="2" fill="#2D1B14"/>
    <rect x="4" y="14" width="2" height="2" fill="#E8A87C"/>
    <rect x="18" y="14" width="2" height="2" fill="#E8A87C"/>
  </g>

  <text x="170" y="73" fill="#E2E8F0" font-family="JetBrains Mono, SFMono-Regular, ui-monospace, monospace" font-size="46" font-weight="700" letter-spacing="2">AIDog</text>
  <text x="172" y="110" fill="#94A3B8" font-family="ui-sans-serif, system-ui, sans-serif" font-size="18" letter-spacing="3.2">AGENT OBSERVABILITY</text>
</svg>